<!-- icon666.com - MILLIONS OF FREE VECTOR ICONS --><svg id="variation" viewBox="0 0 64 64" xmlns="http://www.w3.org/2000/svg" xmlns:xlink="http://www.w3.org/1999/xlink"><linearGradient id="linear-gradient" gradientUnits="userSpaceOnUse" x1="31.83" x2="62.82" y1="36.11" y2="56.02"><stop offset="0" stop-color="#5db4ff"></stop><stop offset="1" stop-color="#1a63ff"></stop></linearGradient><linearGradient id="linear-gradient-2" gradientUnits="userSpaceOnUse" x1="39.8" x2="61.03" y1="35.17" y2="38.8"><stop offset="0" stop-color="#ceeaff"></stop><stop offset="1" stop-color="#a0d1ff"></stop></linearGradient><g fill="#050819"><path d="m42 5.25h-28a.75.75 0 0 0 -.53.22l-8 8a.75.75 0 0 0 -.22.53v42a2.75 2.75 0 0 0 2.75 2.75h34a2.75 2.75 0 0 0 2.75-2.75v-48a2.75 2.75 0 0 0 -2.75-2.75zm-28.75 2.56v5.44h-5.44zm30 48.19a1.25 1.25 0 0 1 -1.25 1.25h-34a1.25 1.25 0 0 1 -1.25-1.25v-41.25h7.25a.76.76 0 0 0 .75-.75v-7.25h27.25a1.25 1.25 0 0 1 1.25 1.25z" fill="#050819" style="fill: rgb(255, 255, 255);"></path><path d="m38 29.25h-26a.75.75 0 0 0 0 1.5h26a.75.75 0 0 0 0-1.5z" fill="#050819" style="fill: rgb(255, 255, 255);"></path><path d="m38 34.25h-26a.75.75 0 0 0 0 1.5h26a.75.75 0 0 0 0-1.5z" fill="#050819" style="fill: rgb(255, 255, 255);"></path><path d="m38 39.25h-26a.75.75 0 0 0 0 1.5h26a.75.75 0 0 0 0-1.5z" fill="#050819" style="fill: rgb(255, 255, 255);"></path><path d="m38 44.25h-26a.75.75 0 0 0 0 1.5h26a.75.75 0 0 0 0-1.5z" fill="#050819" style="fill: rgb(255, 255, 255);"></path><path d="m38 49.25h-26a.75.75 0 0 0 0 1.5h26a.75.75 0 0 0 0-1.5z" fill="#050819" style="fill: rgb(255, 255, 255);"></path><path d="m38 24.25h-26a.75.75 0 0 0 0 1.5h26a.75.75 0 0 0 0-1.5z" fill="#050819" style="fill: rgb(255, 255, 255);"></path><path d="m38 19.25h-26a.75.75 0 0 0 0 1.5h26a.75.75 0 0 0 0-1.5z" fill="#050819" style="fill: rgb(255, 255, 255);"></path></g><path d="m57.83 54.6-.22-.6a23.59 23.59 0 0 1 -1.3-5.58c-.59-5.59-1.82-8.64-5.42-12.13a18.16 18.16 0 0 0 2.28-4.5 1 1 0 0 0 -.83-1.22c-1.56-.23-4.23.59-5.89.59s-4.33-.82-5.89-.59a1 1 0 0 0 -.83 1.22 18.16 18.16 0 0 0 2.27 4.54c-3.6 3.49-4.83 6.54-5.42 12.13a23.59 23.59 0 0 1 -1.29 5.54l-.22.56a2.58 2.58 0 0 0 -.17.91 2.49 2.49 0 0 0 2.49 2.53h18.12a2.49 2.49 0 0 0 2.49-2.49 2.58 2.58 0 0 0 -.17-.91z" fill="url(#linear-gradient)"></path><path d="m57.49 39.75a.73.73 0 0 1 -.5-.19l-.69-.62a7.26 7.26 0 0 0 -4.85-1.86h-10.45a.75.75 0 0 1 0-1.5h10.45a8.77 8.77 0 0 1 5.85 2.24l.69.62a.75.75 0 0 1 .06 1.06.73.73 0 0 1 -.56.25z" fill="url(#linear-gradient-2)"></path></svg>