<!-- icon666.com - MILLIONS OF FREE VECTOR ICONS --><svg enable-background="new 0 0 3873 3873" viewBox="0 0 3873 3873" xmlns="http://www.w3.org/2000/svg"><g id="Layer_1" clip-rule="evenodd" fill-rule="evenodd"><path d="m557.9 53.1h2761.2c279.8 0 508.7 228.9 508.7 508.7v2761.2c0 279.8-228.9 508.7-508.7 508.7h-2761.2c-279.8 0-508.7-228.9-508.7-508.7v-2761.3c.1-279.7 229-508.6 508.7-508.6z" fill="#ec407a" style="fill: rgb(8, 194, 186);"></path><g fill="#fff"><path d="m1707.3 2923.9c-26.8 0-48.7-21.7-48.7-48.7 0-26.8 21.8-48.7 48.7-48.7 33.1 0 60-26.9 60-60s-26.9-60-60-60c-280.5.5-274.7.5-275 .5-7.8 0-15.5-1.9-22.4-5.5l-236.5-123h-253.2c-26.8 0-48.7-21.7-48.7-48.7 0-26.9 21.7-48.7 48.7-48.7h265.2c7.8 0 15.5 1.9 22.4 5.5l236.5 123 263-.5c86.8 0 157.4 70.6 157.4 157.3 0 86.9-70.6 157.5-157.4 157.5z" fill="#fff" style="fill: rgb(255, 255, 255);"></path><path d="m1614.4 3238.3h-155.7c-16.5 0 3.2 3.5-427.9-161.6h-107.6c-26.8 0-48.7-21.7-48.7-48.7 0-26.8 21.7-48.7 48.7-48.7 118.1 1 119.6-2.4 134.2 3.3l410.4 158.3h136.2c110.3-47.4 614.7-212.5 754.2-307.5 25.9-17.7 29.4-50.7 17.8-71.2-19.5-34.5-79.3-35-152.4-1.3-1.3.6-2.7 1.2-4.1 1.7-467.5 165.3-446.1 161.3-461.6 161.3h-424.2c-26.8 0-48.7-21.7-48.7-48.7 0-26.8 21.8-48.7 48.7-48.7h415.7l435.3-155c277.6-126.5 372.5 144.1 227.9 242.3-158 107.5-691.8 279.4-777.9 319.7-6 3.3-13.1 4.8-20.3 4.8z" fill="#fff" style="fill: rgb(255, 255, 255);"></path><path d="m841.6 3189.6h-192.8c-70.1 0-127.2-57.1-127.2-127.2v-565.1c0-70.1 57.1-127.2 127.2-127.2l192.8.1c70.1 0 127.2 57.1 127.2 127.2v565.1c0 70.1-57.1 127.1-127.2 127.1zm-192.8-722c-16.2 0-29.8 13.7-29.8 29.8v565.1c0 16.2 13.7 29.8 29.8 29.8h192.8c16.2 0 29.8-13.7 29.8-29.8v-565.1c0-16.2-13.7-29.8-29.8-29.8z" fill="#fff" style="fill: rgb(255, 255, 255);"></path><path d="m723.3 3059c-26.8 0-48.7-21.7-48.7-48.7v-118.1c0-26.8 21.7-48.7 48.7-48.7 26.9 0 48.7 21.7 48.7 48.7v118.1c0 26.9-21.8 48.7-48.7 48.7z" fill="#fff" style="fill: rgb(255, 255, 255);"></path><path d="m2957 1403.4h-265.2c-7.8 0-15.5-1.9-22.4-5.5l-236.5-123-263 .5c-86.8 0-157.4-70.6-157.4-157.3s70.6-157.3 157.3-157.3c26.8 0 48.7 21.8 48.7 48.7 0 26.8-21.8 48.7-48.7 48.7-33.1 0-60 26.9-60 60s26.9 60 60 60c280.5-.5 274.7-.5 275-.5 7.8 0 15.5 1.9 22.4 5.5l236.5 123h253.3c26.8 0 48.7 21.7 48.7 48.7 0 26.8-21.8 48.5-48.7 48.5z" fill="#fff" style="fill: rgb(255, 255, 255);"></path><path d="m1464 970.7c158.2-107.6 691.7-279.3 778-319.7 6.5-3 13.5-4.6 20.7-4.6 161.2 1.1 158.4-2.4 173.2 3.3l410.3 158.3h107.7c26.8 0 48.7 21.7 48.7 48.7 0 26.8-21.7 48.7-48.7 48.7h-116.7c-16.5 0 3.2 3.5-427.9-161.6h-136.2c-110.2 47.3-614.7 212.5-754.2 307.5-25.9 17.7-29.4 50.7-17.8 71.2 19.5 34.5 79.3 35 152.4 1.3 3.5-1.7-27 9.5 449.3-160.2 14.9-5.3-2.6-1.8 440.4-2.8 26.8 0 48.7 21.8 48.7 48.7s-21.8 48.7-48.7 48.7h-415.7l-435.3 155c-277.9 126.4-372.7-144.2-228.2-242.5z" fill="#fff" style="fill: rgb(255, 255, 255);"></path><path d="m3228.3 1514.4h-192.8c-70.1 0-127.2-57.1-127.2-127.2v-565c0-70.1 57.1-127.2 127.2-127.2l192.8.1c70.1 0 127.2 57.1 127.2 127.2v565.1c0 70-57.1 127-127.2 127zm-192.8-722c-16.2 0-29.8 13.7-29.8 29.8v565.1c0 16.2 13.7 29.8 29.8 29.8h192.8c16.2 0 29.8-13.7 29.8-29.8v-565.1c0-16.2-13.7-29.8-29.8-29.8z" fill="#fff" style="fill: rgb(255, 255, 255);"></path><path d="m3157.4 1058.4c-26.8 0-48.7-21.7-48.7-48.7v-118.2c0-26.8 21.7-48.7 48.7-48.7 26.9 0 48.7 21.8 48.7 48.7v118.1c0 26.9-21.9 48.8-48.7 48.8z" fill="#fff" style="fill: rgb(255, 255, 255);"></path><path d="m1882.7 2351.8c-216.2 0-392.1-175.9-392.1-392.1s175.9-392.1 392.1-392.1 392.1 175.9 392.1 392.1-175.9 392.1-392.1 392.1zm0-686.9c-162.5 0-294.7 132.2-294.7 294.7s132.2 294.7 294.7 294.7 294.7-132.2 294.7-294.7c.1-162.4-132.2-294.7-294.7-294.7z" fill="#fff" style="fill: rgb(255, 255, 255);"></path><path d="m1882.7 2556.1c-328.8 0-596.4-267.6-596.4-596.4s267.6-596.4 596.4-596.4 596.4 267.6 596.4 596.4c.1 328.9-267.5 596.4-596.4 596.4zm0-1095.5c-275.2 0-499.1 223.9-499.1 499.1s223.9 499.1 499.1 499.1 499.1-223.9 499.1-499.1-223.8-499.1-499.1-499.1z" fill="#fff" style="fill: rgb(255, 255, 255);"></path><path d="m1888.9 2143.2h-74.1c-26.8 0-48.7-21.8-48.7-48.7s21.8-48.7 48.7-48.7h74.1c6.8 0 7.7-1.4 8.2-2 2.4-3.5 5-12.1 5-25.5 0-7.1-6-13.2-13.1-13.2-73.4 0-122.7-44.3-122.7-110.4v-8.2c0-60.9 49.5-110.4 110.4-110.4h74.1c26.8 0 48.7 21.8 48.7 48.7 0 26.8-21.7 48.7-48.7 48.7h-74.1c-7.1 0-13.1 6-13.1 13.1v8.2c0 5.5 0 13.2 25.5 13.2 60.9 0 110.4 49.5 110.4 110.4-.2 75.8-43.5 124.8-110.6 124.8z" fill="#fff" style="fill: rgb(255, 255, 255);"></path><path d="m1889.8 2219.9c-26.8 0-48.7-21.7-48.7-48.7v-74.7c0-26.8 21.7-48.7 48.7-48.7 26.8 0 48.7 21.7 48.7 48.7v74.7c0 27-21.8 48.7-48.7 48.7zm0-346.2c-26.8 0-48.7-21.7-48.7-48.7v-77c0-26.8 21.7-48.7 48.7-48.7 26.8 0 48.7 21.7 48.7 48.7v77c0 26.9-21.8 48.7-48.7 48.7z" fill="#fff" style="fill: rgb(255, 255, 255);"></path><path d="m2091.1 1751.3c-19-19-19-49.8 0-68.8l144.5-144.5c19-19 49.8-19 68.8 0s19 49.8 0 68.8l-144.5 144.5c-19 19-49.7 19.1-68.8 0z" fill="#fff" style="fill: rgb(255, 255, 255);"></path><path d="m2242.3 2374.5-144.5-144.5c-19-19-19-49.8 0-68.7s49.8-19 68.8 0l144.5 144.5c19 19 19 49.8 0 68.7-18.9 18.9-49.8 19-68.8 0z" fill="#fff" style="fill: rgb(255, 255, 255);"></path><path d="m1470.3 2390.4c-19-19-19-49.8 0-68.7l144.5-144.5c19-19 49.8-19 68.7 0 19 19 19 49.8 0 68.8l-144.5 144.4c-18.9 19-49.7 19-68.7 0z" fill="#fff" style="fill: rgb(255, 255, 255);"></path><path d="m1603.2 1753.6-144.5-144.5c-19-19-19-49.8 0-68.8s49.8-19 68.7 0l144.5 144.5c19 19 19 49.8 0 68.8-19 18.9-49.7 19-68.7 0z" fill="#fff" style="fill: rgb(255, 255, 255);"></path></g></g></svg>