<?xml version="1.0" encoding="UTF-8"?>
<svg width="50" height="40" viewBox="0 0 89 88" preserveAspectRatio="xMidYMid meet"
     xmlns="http://www.w3.org/2000/svg">
  <g fill="#3dd2cc">
    <path d="M80.732,40.794c-0.103-5.379-2.645-9.408-6.174-11.725c-3.516-2.344-7.841-3.202-11.969-3.209c-3.467,0.006-6.805,0.612-9.538,1.675c-2.734-1.065-6.073-1.668-9.542-1.675c-4.125,0.007-8.451,0.865-11.967,3.209c-3.53,2.316-6.074,6.346-6.176,11.725v0.022c-0.007,0.331-0.01,0.667-0.014,1.014c-0.045,6.611,1.914,10.183,3.581,13.074c1.617,2.934,2.987,5.241,3.032,11.503c0.008,8.498,1.386,13.913,3.428,17.402c2.008,3.464,4.865,4.966,7.268,4.966h0.043c0.674,0,1.304-0.106,1.893-0.322c0.9-0.325,1.583-1.021,1.967-1.698c0.394-0.688,0.595-1.385,0.74-2.104c0.28-1.438,0.327-3.031,0.372-4.796c0.075-3.511,0.12-7.655,1.18-11.166c0.445-1.507,0.991-3.104,1.714-4.175c0.736-1.042,1.343-1.531,2.48-1.659c1.137,0.128,1.741,0.617,2.479,1.659c0.721,1.07,1.268,2.668,1.712,4.175c1.41,4.63,0.999,10.258,1.324,14.276c0.135,1.365,0.294,2.583,0.97,3.79c0.384,0.678,1.065,1.373,1.981,1.702c0.571,0.207,1.204,0.318,1.878,0.318c2.412,0.017,5.292-1.481,7.313-4.966c2.04-3.489,3.415-8.904,3.425-17.402c0.046-6.262,1.415-8.569,3.033-11.503c1.664-2.888,3.632-6.463,3.582-13.074C80.748,41.486,80.741,41.141,80.732,40.794zM73.468,52.818c-1.693,2.935-3.629,6.661-3.584,13.589c0.009,8.041-1.354,12.753-2.838,15.247c-1.503,2.504-2.928,2.856-3.651,2.874c-0.091,0-0.172-0.008-0.241-0.018c-0.054-0.131-0.134-0.368-0.191-0.688c-0.184-0.887-0.256-2.353-0.294-4.07c-0.091-3.455-0.071-7.965-1.358-12.282c-0.476-1.57-1.069-3.529-2.243-5.309c-1.129-1.769-3.157-3.423-5.887-3.56l-0.131-0.006l-0.128,0.006c-2.73,0.137-4.759,1.791-5.887,3.56c-1.173,1.779-1.767,3.738-2.244,5.309c-1.683,5.671-1.158,11.771-1.492,15.172c-0.067,0.92-0.243,1.607-0.351,1.869c-0.068,0.01-0.15,0.018-0.242,0.018c-0.721-0.018-2.15-0.37-3.652-2.874c-1.482-2.497-2.846-7.206-2.836-15.247c0.045-6.924-1.893-10.654-3.581-13.587c-1.641-2.973-2.985-5.094-3.034-10.99c0-0.284,0.006-0.592,0.012-0.924c0.149-4.175,1.79-6.581,4.293-8.307c1.908-1.291,4.415-2.058,7.053-2.352l4.456-0.059c2.587,0.2,5.019,0.789,6.761,1.582l0.875,0.394l0.871-0.392c2.172-0.986,5.397-1.671,8.668-1.665c3.529-0.006,7.09,0.789,9.604,2.49c2.505,1.728,4.143,4.132,4.292,8.312c0.01,0.323,0.016,0.632,0.016,0.921C76.451,47.727,75.11,49.846,73.468,52.818z"/>
    <path d="M38.943,18.924c-8.048,0-14.345-6.886-14.345-15.688c0,8.802-6.296,15.688-14.347,15.688c8.051,0,14.347,6.884,14.347,15.689C24.599,25.808,30.896,18.924,38.943,18.924z"/>
    <path d="M42.795,18.958c0-4.887,3.807-8.708,8.673-8.708c-4.866,0-8.673-3.822-8.673-8.707c0,4.885-3.805,8.707-8.672,8.707C38.99,10.25,42.795,14.072,42.795,18.958z"/>
  </g>
</svg>
